<?xml version="1.0" standalone="no"?>
<!DOCTYPE svg PUBLIC "-//W3C//DTD SVG 20010904//EN"
 "http://www.w3.org/TR/2001/REC-SVG-20010904/DTD/svg10.dtd">
<svg version="1.0" xmlns="http://www.w3.org/2000/svg"
 width="300.000000pt" height="300.000000pt" viewBox="0 0 300.000000 300.000000"
 preserveAspectRatio="xMidYMid meet">
<metadata>
Created by potrace 1.11, written by Peter Selinger 2001-2013
</metadata>
<g transform="translate(0.000000,300.000000) scale(0.100000,-0.100000)"
fill="#000000" stroke="none">
<path d="M1449 2975 c-19 -7 -51 -22 -70 -33 -40 -22 -456 -263 -574 -332 -44
-25 -177 -102 -295 -170 -118 -68 -227 -135 -243 -148 -15 -14 -37 -46 -50
-71 l-22 -46 0 -675 0 -675 22 -46 c32 -64 60 -87 213 -175 74 -43 218 -126
320 -184 102 -59 277 -160 390 -225 178 -103 241 -138 322 -177 23 -11 85 -10
92 1 3 5 17 12 30 15 14 3 46 19 73 35 26 16 122 71 213 124 359 207 561 323
695 400 181 103 198 116 229 179 l26 52 0 672 c0 829 19 752 -220 889 -74 43
-193 112 -265 153 -124 72 -517 298 -675 389 -41 23 -83 43 -92 43 -9 0 -20 5
-23 10 -8 13 -51 11 -96 -5z m136 -711 c-8 -93 -21 -257 -30 -364 -8 -107 -18
-214 -21 -237 l-6 -43 165 0 c164 0 165 0 181 -25 26 -39 25 -41 -73 -260 -15
-33 -97 -221 -182 -417 -84 -197 -158 -358 -162 -358 -5 0 -6 42 -3 93 11 165
26 668 21 678 -4 5 -78 9 -166 9 l-159 0 -16 33 c-18 37 -36 -7 252 620 63
136 114 249 114 251 0 10 92 197 95 194 3 -2 -2 -81 -10 -174z m-503 -271 c12
-27 23 -51 24 -54 3 -5 -458 -411 -488 -430 -20 -13 -15 -18 242 -234 172
-145 245 -208 245 -214 0 -17 -39 -101 -47 -101 -4 0 -68 51 -141 113 -74 61
-206 173 -296 247 -152 127 -162 137 -159 167 3 28 39 64 297 292 161 144 295
261 297 261 2 0 14 -21 26 -47z m1183 -221 c262 -233 296 -267 293 -290 -2
-21 -53 -69 -233 -220 -291 -245 -361 -302 -368 -302 -10 0 -48 93 -43 104 2
6 114 103 249 216 135 113 246 208 246 211 1 5 -191 173 -416 364 -45 39 -82
74 -83 78 -1 17 43 108 51 105 5 -2 142 -122 304 -266z"/>
</g>
</svg>
